<svg width="749" height="202" viewBox="0 0 749 202" fill="none" xmlns="http://www.w3.org/2000/svg">
  <path d="M705.398 201.28C677.031 201.28 662.847 183.388 662.847 152.078V140.896H690.164V154.315C690.164 168.292 695.942 173.324 705.136 173.324C714.329 173.324 720.107 168.292 720.107 153.756C720.107 137.541 714.329 127.198 695.417 109.586C671.252 86.9418 663.372 71.0071 663.372 48.6427C663.372 17.8916 678.344 3.05176e-05 706.449 3.05176e-05C734.554 3.05176e-05 748.475 17.8916 748.475 49.2018V57.3089H721.158V47.2449C721.158 33.2671 715.905 27.9556 706.712 27.9556C697.518 27.9556 692.265 33.2671 692.265 46.6858C692.265 60.9431 698.306 71.2867 717.218 88.8987C741.383 111.543 749 127.198 749 151.519C749 183.388 733.766 201.28 705.398 201.28Z" fill="black"/>
  <path d="M578.625 198.484V2.79559H621.176C650.069 2.79559 664.253 19.8485 664.253 51.1587V70.448C664.253 101.758 650.069 118.811 621.176 118.811H607.518V198.484H578.625ZM607.518 90.8556H621.176C630.37 90.8556 635.36 86.3827 635.36 72.4049V49.2018C635.36 35.224 630.37 30.7512 621.176 30.7512H607.518V90.8556Z" fill="black"/>
  <path d="M478.717 198.484L508.661 2.79559H547.797L577.741 198.484H548.848L543.595 159.626V160.185H510.762L505.509 198.484H478.717ZM514.176 133.628H540.18L527.31 36.9014H526.784L514.176 133.628Z" fill="black"/>
  <path d="M358.133 198.484V2.79559H399.371L417.757 142.853H418.282L436.669 2.79559H477.907V198.484H450.59V50.32H450.064L429.052 198.484H404.887L383.874 50.32H383.348V198.484H358.133Z" fill="black"/>
  <path d="M264.56 198.484V2.79559H308.687C337.58 2.79559 351.763 19.8485 351.763 51.1587V150.121C351.763 181.432 337.58 198.484 308.687 198.484H264.56ZM293.452 170.529H308.162C317.355 170.529 322.871 165.497 322.871 151.519V49.7609C322.871 35.7832 317.355 30.7512 308.162 30.7512H293.452V170.529Z" fill="black"/>
  <path d="M165.6 198.484V2.79559H201.847L229.952 119.929H230.477V2.79559H256.218V198.484H226.537L191.866 55.6316H191.341V198.484H165.6Z" fill="black"/>
  <path d="M128.202 198.484V2.79559H157.094V198.484H128.202Z" fill="black"/>
  <path d="M0 198.484V2.79556H41.2379L59.6242 142.853H60.1495L78.5358 2.79556H119.774V198.484H92.4569V50.32H91.9316L70.9186 198.484H46.7538L25.7408 50.32H25.2155V198.484H0Z" fill="black"/>
</svg>
